<?xml version="1.0" encoding="UTF-8" standalone="no"?>
<!-- Created with Inkscape (http://www.inkscape.org/) -->

<svg
   width="7mm"
   height="3mm"
   version="1.1"
   viewBox="0 0 7 3"
   xml:space="preserve"
   id="svg2"
   sodipodi:docname="Block_Code_Template_Operator_raw.svg"
   inkscape:version="1.4 (86a8ad7, 2024-10-11)"
   xmlns:inkscape="http://www.inkscape.org/namespaces/inkscape"
   xmlns:sodipodi="http://sodipodi.sourceforge.net/DTD/sodipodi-0.dtd"
   xmlns="http://www.w3.org/2000/svg"
   xmlns:svg="http://www.w3.org/2000/svg"><defs
   id="defs2"><inkscape:path-effect
   effect="fillet_chamfer"
   id="path-effect21"
   is_visible="true"
   lpeversion="1"
   nodesatellites_param="F,0,0,1,0,0,0,1 @ F,0,0,1,0,0,0,1 @ F,0,0,1,0,0,0,1 @ F,0,0,1,0,0,0,1 @ F,0,0,1,0,0,0,1 @ F,0,0,1,0,0,0,1 @ F,0,0,1,0,0,0,1 @ F,0,0,1,0,0,0,1 @ F,0,0,1,0,0,0,1"
   radius="0"
   unit="px"
   method="auto"
   mode="F"
   chamfer_steps="1"
   flexible="false"
   use_knot_distance="true"
   apply_no_radius="true"
   apply_with_radius="true"
   only_selected="false"
   hide_knots="false" /><inkscape:path-effect
   effect="fillet_chamfer"
   id="path-effect20"
   is_visible="true"
   lpeversion="1"
   nodesatellites_param="F,0,0,1,0,0,0,1 @ F,0,0,1,0,0,0,1 @ F,0,0,1,0,0,0,1 @ F,0,0,1,0,0,0,1 @ F,0,0,1,0,0,0,1 @ F,0,0,1,0,0,0,1 @ F,0,0,1,0,0,0,1 @ F,0,0,1,0,0,0,1 | F,0,0,1,0,0,0,1 @ F,0,0,1,0,0,0,1 @ F,0,0,1,0,0,0,1 @ F,0,0,1,0,0,0,1 @ F,0,0,1,0,0,0,1 @ F,0,0,1,0,0,0,1 @ F,0,0,1,0,0,0,1 @ F,0,0,1,0,0,0,1 | F,0,0,1,0,0,0,1 @ F,0,0,1,0,0,0,1 @ F,0,0,1,0,0,0,1 @ F,0,0,1,0,0,0,1 @ F,0,0,1,0,0,0,1 @ F,0,0,1,0,0,0,1 @ F,0,0,1,0,0,0,1 @ F,0,0,1,0,0,0,1 | F,0,0,1,0,0,0,1 @ F,0,0,1,0,0,0,1 @ F,0,0,1,0,0,0,1 @ F,0,0,1,0,0,0,1 @ F,0,0,1,0,0,0,1 @ F,0,0,1,0,0,0,1 @ F,0,0,1,0,0,0,1 @ F,0,0,1,0,0,0,1 @ F,0,0,1,0,0,0,1"
   radius="0"
   unit="px"
   method="auto"
   mode="F"
   chamfer_steps="1"
   flexible="false"
   use_knot_distance="true"
   apply_no_radius="true"
   apply_with_radius="true"
   only_selected="false"
   hide_knots="false" /><inkscape:path-effect
   effect="fillet_chamfer"
   id="path-effect18"
   is_visible="true"
   lpeversion="1"
   nodesatellites_param="F,0,0,1,0,0.25000366,0,1 @ F,0,0,1,0,0.24999817,0,1 @ F,0,0,1,0,0.24999634,0,1 @ F,0,0,1,0,0.25021875,0,1"
   radius="0"
   unit="px"
   method="auto"
   mode="F"
   chamfer_steps="1"
   flexible="false"
   use_knot_distance="true"
   apply_no_radius="true"
   apply_with_radius="true"
   only_selected="false"
   hide_knots="false" /><inkscape:path-effect
   effect="fillet_chamfer"
   id="path-effect17"
   is_visible="true"
   lpeversion="1"
   nodesatellites_param="F,0,0,1,0,0,0,1 @ F,0,0,1,0,0,0,1 @ F,0,0,1,0,0,0,1 @ F,0,1,1,0,0,0,1"
   radius="0"
   unit="px"
   method="auto"
   mode="F"
   chamfer_steps="1"
   flexible="false"
   use_knot_distance="true"
   apply_no_radius="true"
   apply_with_radius="true"
   only_selected="false"
   hide_knots="false" /><inkscape:path-effect
   effect="fillet_chamfer"
   id="path-effect16"
   is_visible="true"
   lpeversion="1"
   nodesatellites_param="F,0,0,1,0,0.24999966,0,1 @ F,0,0,1,0,0.24999863,0,1 @ F,0,0,1,0,0.24999634,0,1 @ F,0,0,1,0,0.25000092,0,1"
   radius="0"
   unit="px"
   method="auto"
   mode="F"
   chamfer_steps="1"
   flexible="false"
   use_knot_distance="true"
   apply_no_radius="true"
   apply_with_radius="true"
   only_selected="false"
   hide_knots="false" /><inkscape:path-effect
   effect="fillet_chamfer"
   id="path-effect15"
   is_visible="true"
   lpeversion="1"
   nodesatellites_param="F,0,0,1,0,0,0,1 @ F,0,0,1,0,0,0,1 @ F,0,0,1,0,0,0,1 @ F,0,0,1,0,0,0,1"
   radius="0"
   unit="px"
   method="auto"
   mode="F"
   chamfer_steps="1"
   flexible="false"
   use_knot_distance="true"
   apply_no_radius="true"
   apply_with_radius="true"
   only_selected="false"
   hide_knots="false" /><inkscape:path-effect
   effect="fillet_chamfer"
   id="path-effect14"
   is_visible="true"
   lpeversion="1"
   nodesatellites_param="F,0,0,1,0,0.25444931,0,1 @ F,0,0,1,0,0.25999969,0,1 @ F,0,0,1,0,0.24999634,0,1 @ F,0,0,1,0,0.24999863,0,1"
   radius="0"
   unit="px"
   method="auto"
   mode="F"
   chamfer_steps="1"
   flexible="false"
   use_knot_distance="true"
   apply_no_radius="true"
   apply_with_radius="true"
   only_selected="false"
   hide_knots="false" /><linearGradient
   id="swatch13"
   inkscape:swatch="solid"><stop
     style="stop-color:#000000;stop-opacity:0.25;"
     offset="0"
     id="stop13" /></linearGradient><inkscape:path-effect
   effect="fillet_chamfer"
   id="path-effect13"
   is_visible="true"
   lpeversion="1"
   nodesatellites_param="F,0,0,1,0,0.25000366,0,1 @ F,0,0,1,0,0.25000137,0,1 @ F,0,0,1,0,0,0,1 @ F,0,0,1,0,0,0,1"
   radius="0"
   unit="px"
   method="auto"
   mode="F"
   chamfer_steps="1"
   flexible="false"
   use_knot_distance="true"
   apply_no_radius="true"
   apply_with_radius="true"
   only_selected="false"
   hide_knots="false" /><linearGradient
   id="swatch10"
   inkscape:swatch="solid"><stop
     style="stop-color:#000000;stop-opacity:1;"
     offset="0"
     id="stop10" /></linearGradient>
         

         
            
         
      
         

         
            
         
      <inkscape:path-effect
   effect="fillet_chamfer"
   id="path-effect18-5"
   is_visible="true"
   lpeversion="1"
   nodesatellites_param="F,0,0,1,0,0.25000102,0,1 @ F,0,0,1,0,0.24997358,0,1 @ F,0,0,1,0,0.24999909,0,1 @ F,0,0,1,0,0.24997373,0,1"
   radius="0"
   unit="px"
   method="auto"
   mode="F"
   chamfer_steps="1"
   flexible="false"
   use_knot_distance="true"
   apply_no_radius="true"
   apply_with_radius="true"
   only_selected="false"
   hide_knots="false" />
         

         
            
         
      </defs><sodipodi:namedview
   id="namedview2"
   pagecolor="#ffffff"
   bordercolor="#000000"
   borderopacity="0.25"
   inkscape:showpageshadow="true"
   inkscape:pageopacity="0.0"
   inkscape:pagecheckerboard="false"
   inkscape:deskcolor="#d1d1d1"
   inkscape:document-units="mm"
   inkscape:zoom="11.313709"
   inkscape:cx="2.8284271"
   inkscape:cy="8.4410872"
   inkscape:window-width="1587"
   inkscape:window-height="1045"
   inkscape:window-x="798"
   inkscape:window-y="153"
   inkscape:window-maximized="0"
   inkscape:current-layer="svg2"
   inkscape:clip-to-page="true"
   borderlayer="true" />

   <g
   transform="translate(-51.31,-97.66)"
   id="operator">

      <g
   id="blocks"><path
     d="m 56.54,98.16 c -0.14,0 -0.25,0.11 -0.25,0.25 v 1.5 c 0,0.14 0.11,0.25 0.25,0.25 h 1.02 c 0.14,0 0.25,-0.11 0.25,-0.25 v -1.5 c 0,-0.14 -0.11,-0.25 -0.25,-0.25 z"
     style="fill:#80cbc4;fill-opacity:1;stroke-width:1.02891"
     id="right-block" /><path
     d="m 54.08,98.66 c -0.14,0 -0.25,0.11 -0.25,0.25 v 0.5 c 0,0.14 0.11,0.25 0.25,0.25 h 1.46 c 0.14,0 0.25,-0.11 0.25,-0.25 v -0.5 c 0,-0.14 -0.11,-0.25 -0.25,-0.25 z"
     style="fill:#80cbc4;fill-opacity:1;stroke-width:1.02891"
     id="center-block" /><path
     d="m 52.07,98.16 c -0.14,0 -0.25,0.11 -0.25,0.25 v 1.5 c 0,0.14 0.11,0.25 0.25,0.25 h 1.01 c 0.14,0 0.25,-0.11 0.25,-0.25 v -1.5 c 0,-0.14 -0.11,-0.25 -0.25,-0.25 z"
     style="fill:#80cbc4;fill-opacity:1;stroke-width:1.02891"
     id="left-block"
     inkscape:label="left-block" /></g>

      
   <path
   id="operator-block"
   style="fill:#c6e1a6;stroke-width:1.02891"
   d="m 51.56,97.66 c -0.14,0 -0.25,0.11 -0.25,0.25 v 2.49 c 0,0.14 0.12,0.26 0.26,0.26 h 6.49 c 0.14,0 0.25,-0.11 0.25,-0.25 v -2.5 c 0,-0.14 -0.11,-0.25 -0.25,-0.25 z m 0.51,0.5 h 1.01 c 0.14,0 0.25,0.11 0.25,0.25 v 1.5 c 0,0.14 -0.11,0.25 -0.25,0.25 h -1.01 c -0.14,0 -0.25,-0.11 -0.25,-0.25 v -1.5 c 0,-0.14 0.11,-0.25 0.25,-0.25 z m 4.47,0 h 1.02 c 0.14,0 0.25,0.11 0.25,0.25 v 1.5 c 0,0.14 -0.11,0.25 -0.25,0.25 h -1.02 c -0.14,0 -0.25,-0.11 -0.25,-0.25 v -1.5 c 0,-0.14 0.11,-0.25 0.25,-0.25 z m -2.46,0.5 h 1.46 c 0.14,0 0.25,0.11 0.25,0.25 v 0.5 c 0,0.14 -0.11,0.25 -0.25,0.25 h -1.46 c -0.14,0 -0.25,-0.11 -0.25,-0.25 v -0.5 c 0,-0.14 0.11,-0.25 0.25,-0.25 z" /></g>
</svg>
