<?xml version="1.0" encoding="UTF-8" standalone="no"?>
<svg
   viewBox="0 0 6.9999999 3"
   version="1.1"
   id="svg1"
   sodipodi:docname="operator_block_operator copy.svg"
   width="7"
   height="3"
   inkscape:version="1.4 (86a8ad7, 2024-10-11)"
   xmlns:inkscape="http://www.inkscape.org/namespaces/inkscape"
   xmlns:sodipodi="http://sodipodi.sourceforge.net/DTD/sodipodi-0.dtd"
   xmlns:xlink="http://www.w3.org/1999/xlink"
   xmlns="http://www.w3.org/2000/svg"
   xmlns:svg="http://www.w3.org/2000/svg">
  <sodipodi:namedview
     id="namedview1"
     pagecolor="#ffffff"
     bordercolor="#000000"
     borderopacity="0.25"
     inkscape:showpageshadow="2"
     inkscape:pageopacity="0.0"
     inkscape:pagecheckerboard="0"
     inkscape:deskcolor="#d1d1d1"
     inkscape:zoom="128"
     inkscape:cx="3.6992187"
     inkscape:cy="1.7148437"
     inkscape:window-width="1480"
     inkscape:window-height="1333"
     inkscape:window-x="1046"
     inkscape:window-y="4"
     inkscape:window-maximized="0"
     inkscape:current-layer="operator" />
  <defs
     id="defs1">
    <linearGradient
       id="swatch6"
       inkscape:swatch="solid">
      <stop
         style="stop-color:#000000;stop-opacity:1;"
         offset="0"
         id="stop6" />
    </linearGradient>
    <rect
       x="0.755"
       y="0.5"
       width="1.1999324"
       height="1.9250331"
       id="rect6" />
    <linearGradient
       id="swatch5"
       inkscape:swatch="solid">
      <stop
         style="stop-color:#000000;stop-opacity:1;"
         offset="0"
         id="stop5" />
    </linearGradient>
    <linearGradient
       id="swatch4"
       inkscape:swatch="solid">
      <stop
         style="stop-color:#000000;stop-opacity:1;"
         offset="0"
         id="stop4" />
    </linearGradient>
    <linearGradient
       id="swatch3"
       inkscape:swatch="solid">
      <stop
         style="stop-color:#80cbc4;stop-opacity:1;"
         offset="0"
         id="stop3" />
    </linearGradient>
    <linearGradient
       id="linearGradient185"
       x1="-0.039579"
       x2="1.9294"
       y1="1.9764"
       y2="1.9764"
       gradientTransform="translate(0.0013967,-0.010816)"
       gradientUnits="userSpaceOnUse">
      <stop
         offset="0"
         id="stop1" />
    </linearGradient>
    <linearGradient
       inkscape:collect="always"
       xlink:href="#swatch4"
       id="linearGradient4"
       x1="0.505"
       y1="1.5"
       x2="2.025"
       y2="1.5"
       gradientUnits="userSpaceOnUse" />
    <linearGradient
       inkscape:collect="always"
       xlink:href="#swatch5"
       id="linearGradient5"
       x1="4.98"
       y1="1.5"
       x2="6.5"
       y2="1.5"
       gradientUnits="userSpaceOnUse" />
    <rect
       x="0.755"
       y="0.5"
       width="1.1999324"
       height="1.9250331"
       id="rect7" />
  </defs>
  <g
     id="operator">
    <g
       id="arithmetic"
       transform="matrix(1,0,0,1.0281,2.50292,0.999998)">
      <path
         id="arithmetic-block"
         d="m 0.26711,0 c -0.14,0 -0.25,0.11 -0.25,0.25 v 0.5 c 0,0.14 0.10997,0.22267 0.24997,0.22267 h 1.46 c 0.14,0 0.25003,-0.08267 0.25003,-0.22267 v -0.5 c 0,-0.14 -0.11,-0.25 -0.25,-0.25 z"
         fill="#80cbc4"
         opacity="0.83"
         stroke-width="0"
         style="paint-order:fill markers stroke" />
      <g
         id="select-bar-container"
         transform="matrix(1.0001,0,0,0.95918,0.0511,-1.3853)"
         stroke-linecap="round"
         stroke-linejoin="round"
         onclick="toggleDropdown(event)">
        <rect
           id="select-bar"
           x="-0.033183001"
           y="1.7156"
           width="1.9588041"
           height="0.5"
           rx="0.24995001"
           ry="0.23826"
           fill-opacity="0.24335"
           opacity="0.83"
           stroke="url(#linearGradient185)"
           stroke-width="0.01007"
           style="stroke:url(#linearGradient185);paint-order:fill markers stroke" />
        <text
           id="select-txt"
           itemid="select-text"
           x="0.98000002"
           y="1.9656"
           fill="#000000"
           font-family="sans-serif"
           font-size="2.05%"
           stroke="url(#linearGradient7)"
           stroke-width="0"
           text-anchor="middle"
           alignment-baseline="middle"
           style="font-variant-ligatures:normal;font-variant-caps:normal;font-variant-numeric:normal;font-variant-east-asian:normal;paint-order:fill markers stroke">Select</text>
      </g>
    </g>
    <g
       id="left-op-group">
      <path
         style="fill:none;fill-opacity:1;stroke-width:0.0944882;stroke:url(#linearGradient4)"
         d="m 0.755,0.5 c -0.14,0 -0.25,0.11 -0.25,0.25 v 1.5 c 0,0.14 0.11,0.25 0.25,0.25 h 1.02 c 0.14,0 0.25,-0.11 0.25,-0.25 V 0.75 C 2.025,0.61 1.915,0.5 1.775,0.5 Z"
         id="left-block"
         inkscape:label="left-block" />
      <text
         xml:space="preserve"
         id="text6"
         style="font-size:1.53373px;font-family:sans-serif;-inkscape-font-specification:'sans-serif, Normal';text-align:start;writing-mode:lr-tb;direction:ltr;white-space:pre;shape-inside:url(#rect6);shape-padding:0;fill:#000000;fill-opacity:1;stroke:none;stroke-width:0.0944882"
         transform="translate(-0.00552427,0.13258252)"><tspan
           x="0.75585938"
           y="1.8992684"
           id="tspan1">E</tspan></text>
    </g>
    <path
       style="fill:#c6e1a6;fill-opacity:1;stroke-width:0.0944882"
       d="M 0.25,0 C 0.11,0 0,0.11 0,0.25 V 2.74 C 0,2.88 0.12,3 0.26,3 H 6.75 C 6.89,3 7,2.89 7,2.75 V 0.25 C 7,0.11 6.89,0 6.75,0 Z m 0.51,0.5 h 1.01 c 0.14,0 0.25,0.11 0.25,0.25 v 1.5 C 2.02,2.39 1.91,2.5 1.77,2.5 H 0.76 C 0.62,2.5 0.51,2.39 0.51,2.25 V 0.75 C 0.51,0.61 0.62,0.5 0.76,0.5 Z m 4.47,0 h 1.02 c 0.14,0 0.25,0.11 0.25,0.25 v 1.5 C 6.5,2.39 6.39,2.5 6.25,2.5 H 5.23 C 5.09,2.5 4.98,2.39 4.98,2.25 V 0.75 C 4.98,0.61 5.09,0.5 5.23,0.5 Z M 2.77,1 h 1.46 c 0.14,0 0.25,0.11 0.25,0.25 v 0.5 C 4.48,1.89 4.37,2 4.23,2 H 2.77 C 2.63,2 2.52,1.89 2.52,1.75 V 1.25 C 2.52,1.11 2.63,1 2.77,1 Z"
       id="operator-block" />
    <g
       id="right-op-group"
       inkscape:label="right-op-group">
      <path
         style="fill:none;fill-opacity:1;stroke-width:0.0944882;stroke:url(#linearGradient5)"
         d="M 5.23,0.5 C 5.09,0.5 4.98,0.61 4.98,0.75 v 1.5 c 0,0.14 0.11,0.25 0.25,0.25 H 6.25 C 6.39,2.5 6.5,2.39 6.5,2.25 V 0.75 C 6.5,0.61 6.39,0.5 6.25,0.5 Z"
         id="right-block"
         inkscape:label="right-block" />
      <text
         xml:space="preserve"
         id="text7"
         style="font-size:1.53373px;font-family:sans-serif;-inkscape-font-specification:'sans-serif, Normal';text-align:start;writing-mode:lr-tb;direction:ltr;white-space:pre;shape-inside:url(#rect7);shape-padding:0;fill:#000000;fill-opacity:1;stroke:none;stroke-width:0.0944882"
         transform="translate(4.4691358,0.18230097)"><tspan
           x="0.75585938"
           y="1.8992684"
           id="tspan2">E</tspan></text>
    </g>
  </g>
</svg>
