<?xml version="1.0" encoding="UTF-8"?>
<!-- Created with Inkscape (http://www.inkscape.org/) -->
<svg width="7mm" height="3mm" version="1.1" viewBox="0 0 7 3" xml:space="preserve" xmlns="http://www.w3.org/2000/svg">

   <g id="operator" transform="translate(-51.31,-97.66)" stroke-width="1.0289">

      <g id="blocks" fill="#80cbc4">
         <path id="right-block"
            d="m56.54 98.16c-0.14 0-0.25 0.11-0.25 0.25v1.5c0 0.14 0.11 0.25 0.25 0.25h1.02c0.14 0 0.25-0.11 0.25-0.25v-1.5c0-0.14-0.11-0.25-0.25-0.25z" />

         <path id="center-block"
            d="m54.08 98.66c-0.14 0-0.25 0.11-0.25 0.25v0.5c0 0.14 0.11 0.25 0.25 0.25h1.46c0.14 0 0.25-0.11 0.25-0.25v-0.5c0-0.14-0.11-0.25-0.25-0.25z" 
            fill="#80cbc4" opacity=".83" stroke-width="0" style="paint-order:fill markers stroke" />
            <g id="select-bar-container" stroke-linecap="round"
               stroke-linejoin="round" onclick="toggleDropdown(event)">
               
            </g>

         <path id="left-block"
            d="m52.07 98.16c-0.14 0-0.25 0.11-0.25 0.25v1.5c0 0.14 0.11 0.25 0.25 0.25h1.01c0.14 0 0.25-0.11 0.25-0.25v-1.5c0-0.14-0.11-0.25-0.25-0.25z" />
      </g>

      <path id="operator-block"
         d="m51.56 97.66c-0.14 0-0.25 0.11-0.25 0.25v2.49c0 0.14 0.12 0.26 0.26 0.26h6.49c0.14 0 0.25-0.11 0.25-0.25v-2.5c0-0.14-0.11-0.25-0.25-0.25zm0.51 0.5h1.01c0.14 0 0.25 0.11 0.25 0.25v1.5c0 0.14-0.11 0.25-0.25 0.25h-1.01c-0.14 0-0.25-0.11-0.25-0.25v-1.5c0-0.14 0.11-0.25 0.25-0.25zm4.47 0h1.02c0.14 0 0.25 0.11 0.25 0.25v1.5c0 0.14-0.11 0.25-0.25 0.25h-1.02c-0.14 0-0.25-0.11-0.25-0.25v-1.5c0-0.14 0.11-0.25 0.25-0.25zm-2.46 0.5h1.46c0.14 0 0.25 0.11 0.25 0.25v0.5c0 0.14-0.11 0.25-0.25 0.25h-1.46c-0.14 0-0.25-0.11-0.25-0.25v-0.5c0-0.14 0.11-0.25 0.25-0.25z"
         fill="#c6e1a6" />
   </g>
</svg>