<svg version="1.1" viewBox="0 0 7 3" xmlns="http://www.w3.org/2000/svg" xmlns:xlink="http://www.w3.org/1999/xlink">
    <defs>
        <linearGradient id="linearGradient185" x1="-.039579" x2="1.9294" y1="1.9764" y2="1.9764"
            gradientTransform="translate(.0013967 -.010816)" gradientUnits="userSpaceOnUse">
            <stop offset="0" />
        </linearGradient>
        <linearGradient id="linearGradient4" x1=".505" x2="2.025" y1="1.5" y2="1.5" gradientUnits="userSpaceOnUse">
            <stop offset="0" />
        </linearGradient>
        <linearGradient id="linearGradient5" x1="4.98" x2="6.5" y1="1.5" y2="1.5" gradientUnits="userSpaceOnUse">
            <stop offset="0" />
        </linearGradient>
    </defs>
    <g id="operator">
        <g id="arithmetic" transform="matrix(1 0 0 1.0281 2.5029 1)">
            <path id="arithmetic-block"
                d="m0.26711 0c-0.14 0-0.25 0.11-0.25 0.25v0.5c0 0.14 0.10997 0.22267 0.24997 0.22267h1.46c0.14 0 0.25003-0.08267 0.25003-0.22267v-0.5c0-0.14-0.11-0.25-0.25-0.25z"
                fill="#80cbc4" opacity=".83" stroke-width="0" style="paint-order:fill markers stroke" />
            <g id="select-bar-container" transform="matrix(1.0001 0 0 .95918 .0511 -1.3853)" stroke-linecap="round"
                stroke-linejoin="round" onclick="toggleDropdown(event)">
                <rect id="select-bar" x="-.033183" y="1.7156" width="1.9588" height=".5" rx=".24995" ry=".23826"
                    fill-opacity=".24335" opacity=".83" stroke="url(#linearGradient185)" stroke-width=".01007"
                    style="paint-order:fill markers stroke" />
                <text id="select-txt" x="0.98000002" y="1.9656" alignment-baseline="middle" fill="#000000"
                    font-family="sans-serif" font-size="2.05%" stroke="url(#linearGradient7)" stroke-width="0"
                    text-anchor="middle"
                    style="font-variant-caps:normal;font-variant-east-asian:normal;font-variant-ligatures:normal;font-variant-numeric:normal;paint-order:fill markers stroke"
                    itemid="select-text">Select</text>
            </g>
        </g>
        <g id="left-op-group" stroke-width=".094488">
            <path id="left-block"
                d="m0.755 0.5c-0.14 0-0.25 0.11-0.25 0.25v1.5c0 0.14 0.11 0.25 0.25 0.25h1.02c0.14 0 0.25-0.11 0.25-0.25v-1.5c0-0.14-0.11-0.25-0.25-0.25z"
                fill="none" stroke="url(#linearGradient4)" />
            <text transform="translate(-.0055243 .13258)" fill="#000000" font-family="sans-serif" font-size="1.5337px"
                style="shape-inside:url(#rect6);shape-padding:0;white-space:pre" xml:space="preserve">
                <tspan x="0.75585938" y="1.8992684">E</tspan>
            </text>
        </g>
        <path id="operator-block"
            d="m0.25 0c-0.14 0-0.25 0.11-0.25 0.25v2.49c0 0.14 0.12 0.26 0.26 0.26h6.49c0.14 0 0.25-0.11 0.25-0.25v-2.5c0-0.14-0.11-0.25-0.25-0.25zm0.51 0.5h1.01c0.14 0 0.25 0.11 0.25 0.25v1.5c0 0.14-0.11 0.25-0.25 0.25h-1.01c-0.14 0-0.25-0.11-0.25-0.25v-1.5c0-0.14 0.11-0.25 0.25-0.25zm4.47 0h1.02c0.14 0 0.25 0.11 0.25 0.25v1.5c0 0.14-0.11 0.25-0.25 0.25h-1.02c-0.14 0-0.25-0.11-0.25-0.25v-1.5c0-0.14 0.11-0.25 0.25-0.25zm-2.46 0.5h1.46c0.14 0 0.25 0.11 0.25 0.25v0.5c0 0.14-0.11 0.25-0.25 0.25h-1.46c-0.14 0-0.25-0.11-0.25-0.25v-0.5c0-0.14 0.11-0.25 0.25-0.25z"
            fill="#c6e1a6" stroke-width=".094488" />

        <g id="right-op-group" stroke-width=".094488">
            <path id="right-block"
                d="m5.23 0.5c-0.14 0-0.25 0.11-0.25 0.25v1.5c0 0.14 0.11 0.25 0.25 0.25h1.02c0.14 0 0.25-0.11 0.25-0.25v-1.5c0-0.14-0.11-0.25-0.25-0.25z"
                fill="none" stroke="url(#linearGradient5)" />
            <text transform="translate(4.4691 .1823)" fill="#000000" font-family="sans-serif" font-size="1.5337px"
                style="shape-inside:url(#rect7);shape-padding:0;white-space:pre" xml:space="preserve">
                <tspan x="0.75585938" y="1.8992684">E</tspan>
            </text>
        </g>
    </g>
</svg>