<?xml version="1.0" encoding="UTF-8"?>
<!-- Created with Inkscape (http://www.inkscape.org/) -->
<svg width="6.08mm" height="4.23mm" version="1.1" viewBox="0 0 6.08 4.23" xml:space="preserve"
  xmlns="http://www.w3.org/2000/svg">
  <g transform="translate(-54.83 -106.45)">
    <g transform="translate(19.33 -11.925)" fill="#8c8f98">
      <path id="placeholder-left"
        d="m36.29 118.9h1.32l0.26 0.26v2.12l-0.26 0.26h-1.32l-0.26-0.26v-2.12l0.26-0.26h1.32l0.26 0.26v2.12l-0.26 0.26h-1.32l-0.26-0.26v-2.12z"
        style="paint-order:fill markers stroke" />
      <path id="placeholder-right"
        d="m39.47 118.9h1.32l0.26 0.26v2.12l-0.26 0.26h-1.32l-0.26-0.26v-2.12l0.26-0.26h1.32l0.26 0.26v2.12l-0.26 0.26h-1.32l-0.26-0.26v-2.12z"
        style="paint-order:fill markers stroke" />
      <path id="bracket-bottom-left" 
        d="m35.5 121.28h0.53l0.26 0.26v0.53h-0.26l-0.2-0.07-0.26-0.26-0.06-0.2" />
      <path id="bracket-bottom"
        d="m40.8 121.54v0.53h-1.06l-0.2 0.07-0.39 0.39-0.2 0.07h-0.81l-0.2-0.07-0.39-0.39-0.2-0.07h-1.06v-0.53h1.32l0.26-0.26h1.34l0.26 0.26" />
      <path id="bracket-bottom-right" 
        d="m41.58 121.28h-0.53l-0.26 0.26v0.53h0.26l0.2-0.07 0.26-0.26 0.06-0.2" />
      <path id="bracket-right" 
        d="m41.05 119.16h0.53v2.12h-0.53" />
      <path id="bracket-top-right" 
        d="m40.79 118.37h0.26l0.2 0.07 0.26 0.26 0.07 0.2v0.26h-0.53l-0.26-0.26"
        stroke-width="1.4142" />
      <path id="bracket-top"
        d="m40.79 118.37v0.53h-1.32l-0.26 0.26v2.12h-1.34v-2.12l-0.26-0.26h-1.32v-0.53h1.06l0.2 0.07 0.39 0.39 0.21 0.07h0.79l0.2-0.07 0.39-0.39 0.2-0.07" />
      <path id="bracket-top-left" 
        d="m36.3 118.37h-0.27l-0.2 0.07-0.26 0.26-0.07 0.2v0.26h0.53l0.26-0.26"
        stroke-width="1.4142" />
      <path id="bracket-left" 
        d="m35.5 119.16h0.53v2.12h-0.53" />
    </g>
  </g>
</svg>