<?xml version="1.0" encoding="UTF-8" standalone="no"?>
<!-- Created with Inkscape (http://www.inkscape.org/) -->

<svg width="6.0799999mm" height="4.23mm" version="1.1" viewBox="0 0 6.08 4.23" xml:space="preserve" id="svg2"
  sodipodi:docname="Block_Code_Template.svg" inkscape:version="1.4 (86a8ad7, 2024-10-11)"
  xmlns:inkscape="http://www.inkscape.org/namespaces/inkscape"
  xmlns:sodipodi="http://sodipodi.sourceforge.net/DTD/sodipodi-0.dtd" xmlns="http://www.w3.org/2000/svg"
  xmlns:svg="http://www.w3.org/2000/svg">
  <defs id="defs2" />
  <sodipodi:namedview id="namedview2" pagecolor="#ffffff" bordercolor="#000000" borderopacity="0.25"
    inkscape:showpageshadow="2" inkscape:pageopacity="0.0" inkscape:pagecheckerboard="0" inkscape:deskcolor="#d1d1d1"
    inkscape:document-units="mm" inkscape:zoom="24.126919" inkscape:cx="18.17472" inkscape:cy="18.796432"
    inkscape:window-width="1312" inkscape:window-height="1341" inkscape:window-x="1262" inkscape:window-y="0"
    inkscape:window-maximized="0" inkscape:current-layer="svg2" />
  <g transform="translate(-54.83,-106.445)" id="g2">
    <g transform="translate(19.33,-11.925)" fill="#8c8f98" id="g1">
      <path id="placeholder-left"
        d="m 36.29,118.9 h 1.32 l 0.26,0.26 v 2.12 l -0.26,0.26 h -1.32 l -0.26,-0.26 v -2.12 l 0.26,-0.26 h 1.32 l 0.26,0.26 v 2.12 l -0.26,0.26 h -1.32 l -0.26,-0.26 v -2.12 z"
        style="paint-order:fill markers stroke" />
      <path id="placeholder-right"
        d="m 39.47,118.9 h 1.32 l 0.26,0.26 v 2.12 l -0.26,0.26 h -1.32 l -0.26,-0.26 v -2.12 l 0.26,-0.26 h 1.32 l 0.26,0.26 v 2.12 l -0.26,0.26 h -1.32 l -0.26,-0.26 v -2.12 z"
        style="paint-order:fill markers stroke" />
      <path id="bracket-bottom-left"
        d="m 35.5,121.28 h 0.53 l 0.26,0.26 v 0.53 h -0.26 l -0.2,-0.07 -0.26,-0.26 -0.06,-0.2" />
      <path id="bracket-bottom"
        d="m 40.8,121.54 v 0.53 h -1.06 l -0.2,0.07 -0.39,0.39 -0.2,0.07 h -0.81 l -0.2,-0.07 -0.39,-0.39 -0.2,-0.07 h -1.06 v -0.53 h 1.32 l 0.26,-0.26 h 1.34 l 0.26,0.26" />
      <path id="bracket-bottom-right"
        d="m 41.58,121.28 h -0.53 l -0.26,0.26 v 0.53 h 0.26 l 0.2,-0.07 0.26,-0.26 0.06,-0.2" />
      <path id="bracket-right" d="m 41.05,119.16 h 0.53 v 2.12 h -0.53" />
      <path id="bracket-top-right" d="m 40.79,118.37 h 0.26 l 0.2,0.07 0.26,0.26 0.07,0.2 v 0.26 h -0.53 l -0.26,-0.26"
        stroke-width="1.4142" />
      <path id="bracket-top"
        d="m 40.79,118.37 v 0.53 h -1.32 l -0.26,0.26 v 2.12 h -1.34 v -2.12 l -0.26,-0.26 h -1.32 v -0.53 h 1.06 l 0.2,0.07 0.39,0.39 0.21,0.07 h 0.79 l 0.2,-0.07 0.39,-0.39 0.2,-0.07" />
      <path id="bracket-top-left" d="m 36.3,118.37 h -0.27 l -0.2,0.07 -0.26,0.26 -0.07,0.2 v 0.26 h 0.53 l 0.26,-0.26"
        stroke-width="1.4142" />
      <path id="bracket-left" d="m 35.5,119.16 h 0.53 v 2.12 H 35.5" />
    </g>
  </g>
</svg>